<svg version="1.0" xmlns="http://www.w3.org/2000/svg" width="158.667" height="162.667" viewBox="0 0 119 122"><path d="M48.6 11.5c-7.3 1.9-16.4 6.7-22 11.6-4.6 4.1-11 13.2-10.4 14.8.1.5 3.7 3.6 7.9 6.9l7.5 6 2.4-4.5c3.2-6.1 11-12.8 17.2-14.9 7.8-2.6 17.4-1.6 24 2.5l5.1 3.2 6.9-6.8c3.7-3.7 6.8-7.1 6.8-7.4 0-1.4-11.2-8.1-16.8-10-7.6-2.7-20.9-3.3-28.6-1.4zM61 61.5V71h13.5c14.6 0 14.6 0 12.5 5.4-.5 1.4-2.8 4.6-5 7-3.7 4-3.9 4.4-2 4.9 1.1.3 1.9 1.1 1.8 1.7-.2.7.5 1.4 1.6 1.5 1 .2 2.4.9 3 1.6.8.9.8 1-.3.4-.9-.5-1.2-.4-.7.3.4.7 1.5 1.2 2.5 1.2 1.9 0 4.5 2.3 3.6 3.1-.2.3.5.5 1.5.6 2.1.2 7.6-5.8 10.4-11.5 4.2-8.1 7.1-28.1 5-33.6-.5-1.4-3.6-1.6-24-1.6H61v9.5zM58.8 92.7c1.2.2 3.2.2 4.5 0 1.2-.2.2-.4-2.3-.4s-3.5.2-2.2.4z"/></svg>