<?xml version="1.0" standalone="no"?>
<!DOCTYPE svg PUBLIC "-//W3C//DTD SVG 20010904//EN"
 "http://www.w3.org/TR/2001/REC-SVG-20010904/DTD/svg10.dtd">
<svg version="1.0" xmlns="http://www.w3.org/2000/svg"
 width="119.000000pt" height="122.000000pt" viewBox="0 0 119.000000 122.000000"
 preserveAspectRatio="xMidYMid meet">

<g transform="translate(0.000000,122.000000) scale(0.100000,-0.100000)"
fill="#000000" stroke="none">
<path d="M486 1105 c-73 -19 -164 -67 -220 -116 -46 -41 -110 -132 -104 -148
1 -5 37 -36 79 -69 l75 -60 24 45 c32 61 110 128 172 149 78 26 174 16 240
-25 l51 -32 69 68 c37 37 68 71 68 74 0 14 -112 81 -168 100 -76 27 -209 33
-286 14z"/>
<path d="M610 605 l0 -95 135 0 c146 0 146 0 125 -54 -5 -14 -28 -46 -50 -70
-37 -40 -39 -44 -20 -49 11 -3 19 -11 18 -17 -2 -7 5 -14 16 -15 10 -2 24 -9
30 -16 8 -9 8 -10 -3 -4 -9 5 -12 4 -7 -3 4 -7 15 -12 25 -12 19 0 45 -23 36
-31 -2 -3 5 -5 15 -6 21 -2 76 58 104 115 42 81 71 281 50 336 -5 14 -36 16
-240 16 l-234 0 0 -95z"/>
<path d="M588 293 c12 -2 32 -2 45 0 12 2 2 4 -23 4 -25 0 -35 -2 -22 -4z"/>
</g>
</svg>
